<svg width="291" height="46" viewBox="0 0 291 46" fill="none" xmlns="http://www.w3.org/2000/svg">
<path d="M23.416 36L15.736 25.2C14.872 25.296 13.976 25.344 13.048 25.344H4.024V36H0.472V2.4H13.048C17.336 2.4 20.696 3.424 23.128 5.472C25.56 7.52 26.776 10.336 26.776 13.92C26.776 16.544 26.104 18.768 24.76 20.592C23.448 22.384 21.56 23.68 19.096 24.48L27.304 36H23.416ZM12.952 22.32C16.28 22.32 18.824 21.584 20.584 20.112C22.344 18.64 23.224 16.576 23.224 13.92C23.224 11.2 22.344 9.12 20.584 7.68C18.824 6.208 16.28 5.472 12.952 5.472H4.024V22.32H12.952ZM56.4235 24.432H35.3035C35.4955 27.056 36.5035 29.184 38.3275 30.816C40.1515 32.416 42.4555 33.216 45.2395 33.216C46.8075 33.216 48.2475 32.944 49.5595 32.4C50.8715 31.824 52.0075 30.992 52.9675 29.904L54.8875 32.112C53.7675 33.456 52.3595 34.48 50.6635 35.184C48.9995 35.888 47.1595 36.24 45.1435 36.24C42.5515 36.24 40.2475 35.696 38.2315 34.608C36.2475 33.488 34.6955 31.952 33.5755 30C32.4555 28.048 31.8955 25.84 31.8955 23.376C31.8955 20.912 32.4235 18.704 33.4795 16.752C34.5675 14.8 36.0395 13.28 37.8955 12.192C39.7835 11.104 41.8955 10.56 44.2315 10.56C46.5675 10.56 48.6635 11.104 50.5195 12.192C52.3755 13.28 53.8315 14.8 54.8875 16.752C55.9435 18.672 56.4715 20.88 56.4715 23.376L56.4235 24.432ZM44.2315 13.488C41.7995 13.488 39.7515 14.272 38.0875 15.84C36.4555 17.376 35.5275 19.392 35.3035 21.888H53.2075C52.9835 19.392 52.0395 17.376 50.3755 15.84C48.7435 14.272 46.6955 13.488 44.2315 13.488ZM71.5371 10.56C74.8331 10.56 77.3611 11.392 79.1211 13.056C80.8811 14.688 81.7611 17.12 81.7611 20.352V36H78.4971V32.064C77.7291 33.376 76.5931 34.4 75.0891 35.136C73.6171 35.872 71.8571 36.24 69.8091 36.24C66.9931 36.24 64.7531 35.568 63.0891 34.224C61.4251 32.88 60.5931 31.104 60.5931 28.896C60.5931 26.752 61.3611 25.024 62.8971 23.712C64.4651 22.4 66.9451 21.744 70.3371 21.744H78.3531V20.208C78.3531 18.032 77.7451 16.384 76.5291 15.264C75.3131 14.112 73.5371 13.536 71.2011 13.536C69.6011 13.536 68.0651 13.808 66.5931 14.352C65.1211 14.864 63.8571 15.584 62.8011 16.512L61.2651 13.968C62.5451 12.88 64.0811 12.048 65.8731 11.472C67.6651 10.864 69.5531 10.56 71.5371 10.56ZM70.3371 33.552C72.2571 33.552 73.9051 33.12 75.2811 32.256C76.6571 31.36 77.6811 30.08 78.3531 28.416V24.288H70.4331C66.1131 24.288 63.9531 25.792 63.9531 28.8C63.9531 30.272 64.5131 31.44 65.6331 32.304C66.7531 33.136 68.3211 33.552 70.3371 33.552ZM114.151 0.383998V36H110.887V31.008C109.863 32.704 108.503 34 106.807 34.896C105.143 35.792 103.255 36.24 101.143 36.24C98.7754 36.24 96.6314 35.696 94.7114 34.608C92.7914 33.52 91.2874 32 90.1994 30.048C89.1114 28.096 88.5674 25.872 88.5674 23.376C88.5674 20.88 89.1114 18.656 90.1994 16.704C91.2874 14.752 92.7914 13.248 94.7114 12.192C96.6314 11.104 98.7754 10.56 101.143 10.56C103.191 10.56 105.031 10.992 106.663 11.856C108.327 12.688 109.687 13.92 110.743 15.552V0.383998H114.151ZM101.431 33.216C103.191 33.216 104.775 32.816 106.183 32.016C107.623 31.184 108.743 30.016 109.543 28.512C110.375 27.008 110.791 25.296 110.791 23.376C110.791 21.456 110.375 19.744 109.543 18.24C108.743 16.736 107.623 15.584 106.183 14.784C104.775 13.952 103.191 13.536 101.431 13.536C99.6394 13.536 98.0234 13.952 96.5834 14.784C95.1754 15.584 94.0554 16.736 93.2234 18.24C92.4234 19.744 92.0234 21.456 92.0234 23.376C92.0234 25.296 92.4234 27.008 93.2234 28.512C94.0554 30.016 95.1754 31.184 96.5834 32.016C98.0234 32.816 99.6394 33.216 101.431 33.216ZM144.859 10.752L132.235 39.024C131.211 41.392 130.027 43.072 128.683 44.064C127.339 45.056 125.723 45.552 123.835 45.552C122.619 45.552 121.483 45.36 120.427 44.976C119.371 44.592 118.459 44.016 117.691 43.248L119.275 40.704C120.555 41.984 122.091 42.624 123.883 42.624C125.035 42.624 126.011 42.304 126.811 41.664C127.643 41.024 128.411 39.936 129.115 38.4L130.219 35.952L118.939 10.752H122.491L131.995 32.208L141.499 10.752H144.859ZM169.469 5.472H157.661V2.4H184.829V5.472H173.021V36H169.469V5.472ZM197.478 36.24C195.046 36.24 192.854 35.696 190.902 34.608C188.95 33.488 187.414 31.952 186.294 30C185.174 28.048 184.614 25.84 184.614 23.376C184.614 20.912 185.174 18.704 186.294 16.752C187.414 14.8 188.95 13.28 190.902 12.192C192.854 11.104 195.046 10.56 197.478 10.56C199.91 10.56 202.102 11.104 204.054 12.192C206.006 13.28 207.526 14.8 208.614 16.752C209.734 18.704 210.294 20.912 210.294 23.376C210.294 25.84 209.734 28.048 208.614 30C207.526 31.952 206.006 33.488 204.054 34.608C202.102 35.696 199.91 36.24 197.478 36.24ZM197.478 33.216C199.27 33.216 200.87 32.816 202.278 32.016C203.718 31.184 204.838 30.016 205.638 28.512C206.438 27.008 206.838 25.296 206.838 23.376C206.838 21.456 206.438 19.744 205.638 18.24C204.838 16.736 203.718 15.584 202.278 14.784C200.87 13.952 199.27 13.536 197.478 13.536C195.686 13.536 194.07 13.952 192.63 14.784C191.222 15.584 190.102 16.736 189.27 18.24C188.47 19.744 188.07 21.456 188.07 23.376C188.07 25.296 188.47 27.008 189.27 28.512C190.102 30.016 191.222 31.184 192.63 32.016C194.07 32.816 195.686 33.216 197.478 33.216ZM254.199 19.2H257.607V32.016C256.039 33.392 254.183 34.448 252.039 35.184C249.895 35.92 247.639 36.288 245.271 36.288C241.911 36.288 238.887 35.552 236.199 34.08C233.511 32.608 231.399 30.576 229.863 27.984C228.327 25.36 227.559 22.432 227.559 19.2C227.559 15.968 228.327 13.056 229.863 10.464C231.399 7.84 233.511 5.792 236.199 4.32C238.887 2.848 241.927 2.112 245.319 2.112C247.879 2.112 250.231 2.528 252.375 3.36C254.519 4.16 256.327 5.36 257.799 6.96L255.591 9.216C252.935 6.592 249.559 5.28 245.463 5.28C242.743 5.28 240.279 5.888 238.071 7.104C235.895 8.288 234.183 9.952 232.935 12.096C231.687 14.208 231.062 16.576 231.062 19.2C231.062 21.824 231.687 24.192 232.935 26.304C234.183 28.416 235.895 30.08 238.071 31.296C240.247 32.512 242.695 33.12 245.415 33.12C248.871 33.12 251.799 32.256 254.199 30.528V19.2ZM277.26 36.24C274.828 36.24 272.636 35.696 270.684 34.608C268.732 33.488 267.196 31.952 266.076 30C264.956 28.048 264.396 25.84 264.396 23.376C264.396 20.912 264.956 18.704 266.076 16.752C267.196 14.8 268.732 13.28 270.684 12.192C272.636 11.104 274.828 10.56 277.26 10.56C279.692 10.56 281.884 11.104 283.836 12.192C285.788 13.28 287.308 14.8 288.396 16.752C289.516 18.704 290.076 20.912 290.076 23.376C290.076 25.84 289.516 28.048 288.396 30C287.308 31.952 285.788 33.488 283.836 34.608C281.884 35.696 279.692 36.24 277.26 36.24ZM277.26 33.216C279.052 33.216 280.652 32.816 282.06 32.016C283.5 31.184 284.62 30.016 285.42 28.512C286.22 27.008 286.62 25.296 286.62 23.376C286.62 21.456 286.22 19.744 285.42 18.24C284.62 16.736 283.5 15.584 282.06 14.784C280.652 13.952 279.052 13.536 277.26 13.536C275.468 13.536 273.852 13.952 272.412 14.784C271.004 15.584 269.884 16.736 269.052 18.24C268.252 19.744 267.852 21.456 267.852 23.376C267.852 25.296 268.252 27.008 269.052 28.512C269.884 30.016 271.004 31.184 272.412 32.016C273.852 32.816 275.468 33.216 277.26 33.216Z" fill="black"/>
</svg>
